<svg width="855" height="861" viewBox="0 0 855 861" fill="none" xmlns="http://www.w3.org/2000/svg">
<path d="M539.924 678.114C667.151 664.226 787.094 597.602 853.135 486.4C821.863 761.443 515.838 935.287 266.046 828.553C243.029 818.744 223.217 802.428 209.62 781.45C153.485 694.819 135.032 584.588 161.546 484.555C237.299 613.044 391.331 691.808 539.924 678.114Z" fill="#6B7280"/>
<path d="M156.885 403.849C105.314 520.975 103.08 658.108 166.305 770.961C-56.1959 606.44 -53.7679 254.381 163.586 91.5114C183.69 76.4578 207.581 67.5228 232.638 66.1631C335.682 60.8215 440.377 99.9608 513.8 172.898C364.624 174.355 219.333 268.269 156.885 403.849Z" fill="#6B7280"/>
<path d="M585.756 208.932C510.488 105.791 392.682 35.5735 263.609 33.4368C513.11 -77.8624 820.008 102.586 853.418 369.374C856.525 394.14 852.446 419.391 841.278 441.728C794.66 534.769 708.224 606.929 607.219 633.637C681.224 498.737 672.095 333.925 585.756 208.932Z" fill="#6B7280"/>
</svg>
