<svg width="512" height="512" viewBox="0 0 512 512" fill="none" xmlns="http://www.w3.org/2000/svg">
<g clip-path="url(#clip0_3_5)">
<path d="M436.893 62H75.6786C52.0607 62 34 80.0607 34 103.679V409.321C34 432.939 52.0607 451 75.6786 451H436.893C460.511 451 478.571 432.939 478.571 409.321V103.679C478.571 80.0607 460.511 62 436.893 62Z" fill="#2A69AE"/>
<path d="M450.786 145.357H61.7857V423.214H450.786V145.357Z" fill="#4B4C4C"/>
<path d="M117.357 228.714L138.196 207.875L214.607 284.286L138.196 360.696L117.357 339.857L172.929 284.286L117.357 228.714Z" fill="#EEEEEE"/>
<path d="M339.643 339.857H228.5V367.643H339.643V339.857Z" fill="#EEEEEE"/>
</g>
<defs>
<clipPath id="clip0_3_5">
<rect width="512" height="512" fill="white"/>
</clipPath>
</defs>
</svg>
